
******** Rust.2010.DVDRiP.XviD.OPTIONAL-MULTISUB-Zen_Bud **********

Format                           : AVI
File size                        : 706 MiB
Duration                         : 1h 30mn
Overall bit rate                 : 1 093 Kbps

Video

Format                           : MPEG-4 Visual
Codec ID/Hint                    : XviD
Duration                         : 1h 30mn
Bit rate                         : 952 Kbps
Width                            : 720 pixels
Height                           : 572 pixels
Display aspect ratio             : 16:9
Stream size                      : 615 MiB (87%)
Writing library                  : XviD 1.1.2 (UTC 2006-11-01)

Audio

Format                           : MPEG Audio
Codec ID/Hint                    : MP3
Duration                         : 1h 30mn
Bit rate                         : 128 Kbps
Channel(s)                       : 2 channels
Sampling rate                    : 48.0 KHz
Stream size                      : 82.7 MiB (12%)
Writing library                  : LAME3.98
Language                         : English

Text #1
Language                         : English

Text #2
Language                         : Italian

Text #3
Language                         : Spanish

Text #4
Language                         : Russian

Text #5
Language                         : Danish

Text #6
Language                         : Finnish

Text #7
Language                         : Greek

Text #8
Language                         : Hindi

Text #9
Language                         : Norwegian

Text #10
Language                         : Portuguese

Text #11
Language                         : Swedish

Text #12
Language                         : Ukrainian
